<?xml version="1.0" encoding="UTF-8"?>
<svg version="1.1" xmlns="http://www.w3.org/2000/svg" width="64" height="64">
<path d="M0 0 C21.12 0 42.24 0 64 0 C64 21.12 64 42.24 64 64 C42.88 64 21.76 64 0 64 C0 42.88 0 21.76 0 0 Z " fill="#F78B08" transform="translate(0,0)"/>
<path d="M0 0 C2.125 1.75 2.125 1.75 2.875 3.75 C4.02222211 6.03838872 4.02222211 6.03838872 6.9453125 6.796875 C8.58113281 7.14492188 8.58113281 7.14492188 10.25 7.5 C11.34570312 7.74234375 12.44140625 7.9846875 13.5703125 8.234375 C14.41335937 8.40453125 15.25640625 8.5746875 16.125 8.75 C17.28376454 12.92715925 17.40022553 16.41519787 17.125 20.75 C15.61086571 23.09690815 14.75592703 23.59704799 12.0625 24.25 C9.72812807 24.62267251 9.72812807 24.62267251 8.125 27.75 C7.795 29.73 7.465 31.71 7.125 33.75 C-2.115 33.75 -11.355 33.75 -20.875 33.75 C-21.535 30.78 -22.195 27.81 -22.875 24.75 C-23.638125 24.646875 -24.40125 24.54375 -25.1875 24.4375 C-28.15935553 23.67725789 -29.03618676 23.14473352 -30.875 20.75 C-31.16796875 18.48828125 -31.16796875 18.48828125 -31.0625 16.0625 C-31.03542969 15.25425781 -31.00835938 14.44601563 -30.98046875 13.61328125 C-30.94566406 12.99839844 -30.91085938 12.38351563 -30.875 11.75 C-30.215 11.75 -29.555 11.75 -28.875 11.75 C-28.875 11.09 -28.875 10.43 -28.875 9.75 C-25.74001708 7.89223235 -23.50028568 7.54859524 -19.875 7.75 C-19.50375 6.821875 -19.50375 6.821875 -19.125 5.875 C-17.66871361 3.39931313 -16.49687494 2.79874998 -13.875 1.75 C-13.875 1.09 -13.875 0.43 -13.875 -0.25 C-9.01576124 -1.86974625 -4.66540052 -2.02843501 0 0 Z " fill="#FEFEFD" transform="translate(38.875,9.25)"/>
<path d="M0 0 C2.125 0.375 2.125 0.375 4 1 C4 1.66 4 2.32 4 3 C3.01 3 2.02 3 1 3 C1 10.92 1 18.84 1 27 C-12.2 27 -25.4 27 -39 27 C-39 19.08 -39 11.16 -39 3 C-39.99 3 -40.98 3 -42 3 C-42 2.34 -42 1.68 -42 1 C-40.35 1 -38.7 1 -37 1 C-36 3 -36 3 -36 12 C-24.78 12 -13.56 12 -2 12 C-2 8.7 -2 5.4 -2 2 C-1.34 1.34 -0.68 0.68 0 0 Z " fill="#EF8D13" transform="translate(51,35)"/>
<path d="M0 0 C0.66 1.32 1.32 2.64 2 4 C3.91761494 5.38245893 3.91761494 5.38245893 6.06640625 6.60546875 C8.57971185 8.41107293 9.79958003 9.3579858 10.72998047 12.33837891 C10.97376977 15.02411588 11.00899409 17.61697962 10.9375 20.3125 C10.94384598 22.12110558 10.95281331 23.92970455 10.96484375 25.73828125 C10.9505835 26.53274658 10.93632324 27.32721191 10.92163086 28.14575195 C10.79123267 30.01677171 10.79123267 30.01677171 12 31 C14.9453557 31.10110353 17.8667756 31.13969279 20.8125 31.1328125 C22.13858276 31.13424759 22.13858276 31.13424759 23.49145508 31.13571167 C25.36442129 31.13639351 27.23738986 31.13453893 29.11035156 31.13037109 C31.98768388 31.12502289 34.86486008 31.13031593 37.7421875 31.13671875 C39.55729201 31.13605797 41.37239643 31.13477681 43.1875 31.1328125 C44.48747925 31.13584885 44.48747925 31.13584885 45.8137207 31.13894653 C49.72003219 31.51260414 49.72003219 31.51260414 53 30 C53.07224729 28.50807481 53.08441263 27.01313817 53.0703125 25.51953125 C53.080625 24.60236328 53.0909375 23.68519531 53.1015625 22.74023438 C53.11703078 20.80798883 53.10969014 18.875409 53.078125 16.94335938 C53.21481228 9.94789956 53.21481228 9.94789956 55.58105469 7.09130859 C57.4921875 5.51171875 57.4921875 5.51171875 59.40185547 4.2253418 C61.31211655 2.99772748 61.31211655 2.99772748 62 0 C62.66 0 63.32 0 64 0 C64 11.22 64 22.44 64 34 C42.88 34 21.76 34 0 34 C0 22.78 0 11.56 0 0 Z " fill="#F5F4F3" transform="translate(0,30)"/>
<path d="M0 0 C21.12 0 42.24 0 64 0 C64 7.59 64 15.18 64 23 C62 22 62 22 60.625 19.1875 C57.47815495 13.01484239 53.91290984 11.3420025 47.53515625 9.22265625 C45 8 45 8 42.6875 5.40234375 C39.19101367 2.27685088 36.39941749 2.32005099 31.9375 2.5 C31.23044922 2.49742188 30.52339844 2.49484375 29.79492188 2.4921875 C26.69923658 2.55032244 24.37041715 2.79984048 21.62890625 4.28125 C19.88965671 5.92031969 19.88965671 5.92031969 19.0703125 8.140625 C18.54050781 9.06101562 18.54050781 9.06101562 18 10 C15.6171875 10.609375 15.6171875 10.609375 12.875 10.75 C11.96492187 10.80671875 11.05484375 10.8634375 10.1171875 10.921875 C9.06917969 10.96054687 9.06917969 10.96054687 8 11 C8 11.66 8 12.32 8 13 C6.34211215 14.34423339 4.67423683 15.67618483 3 17 C2.01 18.32 1.02 19.64 0 21 C0 14.07 0 7.14 0 0 Z " fill="#FCFBF9" transform="translate(0,0)"/>
<path d="M0 0 C4.68139254 -0.02465288 9.36274759 -0.04283739 14.04418945 -0.05493164 C15.63794614 -0.05997157 17.23169819 -0.0668035 18.82543945 -0.07543945 C21.11150253 -0.08751999 23.39750467 -0.09323155 25.68359375 -0.09765625 C26.40026718 -0.10281754 27.11694061 -0.10797882 27.85533142 -0.11329651 C29.57063672 -0.11349263 31.28581266 -0.06192007 33 0 C34 1 34 1 34 9 C22.78 9 11.56 9 0 9 C0 6.03 0 3.06 0 0 Z " fill="#DCA970" transform="translate(15,49)"/>
<path d="M0 0 C-0.61488281 0.25394531 -1.22976563 0.50789062 -1.86328125 0.76953125 C-2.67152344 1.11371094 -3.47976563 1.45789063 -4.3125 1.8125 C-5.11300781 2.14894531 -5.91351563 2.48539063 -6.73828125 2.83203125 C-9.11588277 4.05984274 -10.4625144 4.80908302 -12 7 C-12.58092992 10.19245998 -12.58092992 10.19245998 -12.6875 13.6875 C-12.78611328 15.45673828 -12.78611328 15.45673828 -12.88671875 17.26171875 C-12.94279297 18.61716797 -12.94279297 18.61716797 -13 20 C-12.34 19.67 -11.68 19.34 -11 19 C-10.72259535 16.77283834 -10.72259535 16.77283834 -10.6875 14.1875 C-10.37534227 10.55086241 -10.24868369 9.31650652 -7.9375 6.375 C-4.00361256 4.53360588 -1.31426647 4.70750736 3 5 C3 5.33 3 5.66 3 6 C0.03 6.66 -2.94 7.32 -6 8 C-6 8.66 -6 9.32 -6 10 C-6.66 10 -7.32 10 -8 10 C-7.91253716 11.43861294 -7.80434652 12.87597508 -7.6875 14.3125 C-7.60048828 15.51326172 -7.60048828 15.51326172 -7.51171875 16.73828125 C-6.91022043 19.396812 -6.12633209 20.33978504 -4 22 C-2.9790625 22.2475 -2.9790625 22.2475 -1.9375 22.5 C0 23 0 23 2 26 C2 27.98 2 29.96 2 32 C11.24 32 20.48 32 30 32 C30 30.02 30 28.04 30 26 C30.66 25.67 31.32 25.34 32 25 C32.09765625 31.15234375 32.09765625 31.15234375 32 33 C31 34 31 34 28.04077148 34.11352539 C26.74727783 34.10828857 25.45378418 34.10305176 24.12109375 34.09765625 C23.09110008 34.09553383 23.09110008 34.09553383 22.04029846 34.09336853 C19.83932199 34.08775479 17.63844591 34.07520007 15.4375 34.0625 C13.94856917 34.05748676 12.45963676 34.05292355 10.97070312 34.04882812 C7.31376925 34.03778093 3.65689442 34.02050713 0 34 C-0.33 31.36 -0.66 28.72 -1 26 C-2.98 25.67 -4.96 25.34 -7 25 C-7 25.66 -7 26.32 -7 27 C-6.01 27 -5.02 27 -4 27 C-4 34.59 -4 42.18 -4 50 C-4.66 49.67 -5.32 49.34 -6 49 C-5.98839844 48.42556152 -5.97679687 47.85112305 -5.96484375 47.25927734 C-5.93517393 44.62978994 -5.96708655 42.00441889 -6 39.375 C-5.98066406 38.47136719 -5.96132812 37.56773438 -5.94140625 36.63671875 C-6.00375227 31.38012148 -6.00375227 31.38012148 -8.8125 27.15332031 C-10.95628523 25.58150719 -10.95628523 25.58150719 -13.1875 24.33837891 C-15 23 -15 23 -15.73510742 20.97167969 C-16.45438166 15.61789282 -16.75081787 11.47482081 -14.25 6.5625 C-12.19316666 4.21999536 -10.89738492 3.03478033 -8 2 C-8 1.34 -8 0.68 -8 0 C-4.71303767 -0.79953138 -3.28976808 -1.09658936 0 0 Z " fill="#D79040" transform="translate(16,11)"/>
<path d="M0 0 C0.66 1.32 1.32 2.64 2 4 C3.92188503 5.38453984 3.92188503 5.38453984 6.07421875 6.609375 C8.58132399 8.41027734 9.80126622 9.33857392 10.69775391 12.32226562 C10.90232456 14.99234407 10.91082127 17.57411916 10.8125 20.25 C10.78577804 22.04673338 10.77086429 23.84369341 10.76953125 25.640625 C10.74479736 26.42985352 10.72006348 27.21908203 10.69458008 28.03222656 C10.79536865 28.6815918 10.89615723 29.33095703 11 30 C11.99 30.66 12.98 31.32 14 32 C14 32.66 14 33.32 14 34 C9.38 34 4.76 34 0 34 C0 22.78 0 11.56 0 0 Z " fill="#FDFCFC" transform="translate(0,30)"/>
<path d="M0 0 C3.96 0 7.92 0 12 0 C12.66 1.65 13.32 3.3 14 5 C8.39 5 2.78 5 -3 5 C-3 5.66 -3 6.32 -3 7 C-3.99 7 -4.98 7 -6 7 C-6.66 8.98 -7.32 10.96 -8 13 C-9.258125 13.103125 -10.51625 13.20625 -11.8125 13.3125 C-15.13957417 13.69609156 -15.13957417 13.69609156 -17.875 15.5625 C-18.24625 16.036875 -18.6175 16.51125 -19 17 C-19.66 17 -20.32 17 -21 17 C-21 20.3 -21 23.6 -21 27 C-21.99 27.33 -22.98 27.66 -24 28 C-25.05879377 16.67258726 -25.05879377 16.67258726 -22.65234375 12.87109375 C-19.10093273 9.75677947 -15.50169139 8.37007999 -11 7 C-10.175 6.319375 -9.35 5.63875 -8.5 4.9375 C-5.61654585 2.70282303 -3.58725069 2.33369774 0 2 C0 1.34 0 0.68 0 0 Z " fill="#ED8913" transform="translate(27,3)"/>
<path d="M0 0 C0.495 0.99 0.495 0.99 1 2 C0.67 2.66 0.34 3.32 0 4 C0.99 4.33 1.98 4.66 3 5 C1.625 6.5 1.625 6.5 0 8 C-0.66 8 -1.32 8 -2 8 C-2 14.93 -2 21.86 -2 29 C-2.99 29.495 -2.99 29.495 -4 30 C-4 22.41 -4 14.82 -4 7 C-3.01 7 -2.02 7 -1 7 C-1.495 6.01 -1.495 6.01 -2 5 C-3.32 5.33 -4.64 5.66 -6 6 C-6.33 9.3 -6.66 12.6 -7 16 C-18.22 16.33 -29.44 16.66 -41 17 C-41.96070434 14.11788698 -42.10581883 12.30149956 -42.0625 9.3125 C-42.05347656 8.50425781 -42.04445313 7.69601563 -42.03515625 6.86328125 C-42.02355469 6.24839844 -42.01195312 5.63351563 -42 5 C-41.01 5.495 -41.01 5.495 -40 6 C-40 8.64 -40 11.28 -40 14 C-24.655 13.505 -24.655 13.505 -9 13 C-8.67 10.36 -8.34 7.72 -8 5 C-5.77077045 2.77077045 -3.90864722 2.11871047 -1 1 C-0.67 0.67 -0.34 0.34 0 0 Z " fill="#C89151" transform="translate(56,31)"/>
<path d="M0 0 C9.9 0 19.8 0 30 0 C30 1.65 30 3.3 30 5 C20.1 5 10.2 5 0 5 C0 3.35 0 1.7 0 0 Z " fill="#FBFBFB" transform="translate(17,51)"/>
<path d="M0 0 C0 0.33 0 0.66 0 1 C-2.97 1.66 -5.94 2.32 -9 3 C-9 3.66 -9 4.32 -9 5 C-9.66 5 -10.32 5 -11 5 C-10.91253716 6.43861294 -10.80434652 7.87597508 -10.6875 9.3125 C-10.62949219 10.11300781 -10.57148438 10.91351563 -10.51171875 11.73828125 C-9.91022043 14.396812 -9.12633209 15.33978504 -7 17 C-6.319375 17.165 -5.63875 17.33 -4.9375 17.5 C-3 18 -3 18 -1 21 C-1 22.98 -1 24.96 -1 27 C8.24 27 17.48 27 27 27 C27 25.02 27 23.04 27 21 C27.66 20.67 28.32 20.34 29 20 C29.09765625 26.15234375 29.09765625 26.15234375 29 28 C28 29 28 29 25.04077148 29.11352539 C23.74727783 29.10828857 22.45378418 29.10305176 21.12109375 29.09765625 C20.09110008 29.09553383 20.09110008 29.09553383 19.04029846 29.09336853 C16.83932199 29.08775479 14.63844591 29.07520007 12.4375 29.0625 C10.94856917 29.05748676 9.45963676 29.05292355 7.97070312 29.04882812 C4.31376925 29.03778093 0.65689442 29.02050713 -3 29 C-3.16479492 26.99397786 -3.32958984 24.98795573 -3.49438477 22.98193359 C-3.89053437 20.60428733 -3.89053437 20.60428733 -6.9375 18.625 C-7.948125 18.08875 -8.95875 17.5525 -10 17 C-12.58399406 14.41600594 -12.3268593 13.21629635 -12.375 9.625 C-12.29301886 6.14991057 -12.20913019 4.37469159 -10.5 1.3125 C-6.85137482 -0.60302822 -4.09161038 -0.27277403 0 0 Z " fill="#D6C4B0" transform="translate(19,16)"/>
<path d="M0 0 C1.65 0 3.3 0 5 0 C6 2 6 2 6 11 C17.22 11 28.44 11 40 11 C40.33 10.34 40.66 9.68 41 9 C40.67 10.65 40.34 12.3 40 14 C28.78 13.67 17.56 13.34 6 13 C6 15.97 6 18.94 6 22 C5.01 22.66 4.02 23.32 3 24 C3 16.74 3 9.48 3 2 C2.01 2 1.02 2 0 2 C0 1.34 0 0.68 0 0 Z " fill="#F48603" transform="translate(9,36)"/>
<path d="M0 0 C0.72074707 0.00999023 1.44149414 0.01998047 2.18408203 0.03027344 C5.14607221 0.16728329 7.51813903 0.36130296 10.08984375 1.90234375 C11.4375 3.4375 11.4375 3.4375 12.64453125 5.10546875 C14.55047651 7.2319366 16.45035047 7.80118272 19.125 8.75 C23.61203412 10.35396242 26.02600575 12.0437069 29.0625 15.6875 C28.7325 16.3475 28.4025 17.0075 28.0625 17.6875 C27.258125 16.759375 26.45375 15.83125 25.625 14.875 C22.45040679 11.66261401 19.42359002 10.48945172 15.11328125 9.328125 C13.0625 8.6875 13.0625 8.6875 10.0625 6.6875 C10.38213489 9.65865156 10.38213489 9.65865156 12.0625 12.6875 C14.95653604 14.13187265 17.92085465 14.95057084 21.0625 15.6875 C18.4089294 17.0142853 17.41778594 16.43381253 14.625 15.5625 C11.28985837 14.40987505 10.29503698 14.01305178 8.1875 11.0625 C7.81625 10.27875 7.445 9.495 7.0625 8.6875 C3.91319107 7.63773036 1.67435544 7.58618405 -1.625 7.625 C-2.61886719 7.63402344 -3.61273438 7.64304687 -4.63671875 7.65234375 C-5.39597656 7.66394531 -6.15523437 7.67554688 -6.9375 7.6875 C-6.9375 8.3475 -6.9375 9.0075 -6.9375 9.6875 C-9.4375 11.3125 -9.4375 11.3125 -11.9375 12.6875 C-11.6075 11.3675 -11.2775 10.0475 -10.9375 8.6875 C-9.9475 8.6875 -8.9575 8.6875 -7.9375 8.6875 C-7.9375 8.0275 -7.9375 7.3675 -7.9375 6.6875 C-5.0043642 5.70978807 -3.05571006 5.55330989 0 5.5625 C1.28197266 5.55863281 1.28197266 5.55863281 2.58984375 5.5546875 C4.88930852 5.67819746 6.85890348 6.04329313 9.0625 6.6875 C8.51236966 4.62469227 8.51236966 4.62469227 7.0625 2.6875 C4.1838065 1.98214389 4.1838065 1.98214389 0.9375 1.9375 C-0.70605469 1.85242188 -0.70605469 1.85242188 -2.3828125 1.765625 C-3.22585937 1.73984375 -4.06890625 1.7140625 -4.9375 1.6875 C-4.9375 2.3475 -4.9375 3.0075 -4.9375 3.6875 C-7.5775 4.3475 -10.2175 5.0075 -12.9375 5.6875 C-9.04316886 0.91257937 -5.98832621 -0.16322996 0 0 Z " fill="#D1A572" transform="translate(31.9375,1.3125)"/>
<path d="M0 0 C12.18262586 3.86278381 12.18262586 3.86278381 14.4375 7 C15 9 15 9 15 12 C14.34 12 13.68 12 13 12 C13 11.34 13 10.68 13 10 C11.84371094 9.79697266 11.84371094 9.79697266 10.6640625 9.58984375 C2.57021075 7.85247454 2.57021075 7.85247454 0.82421875 5.2421875 C0.3125 3.3125 0.3125 3.3125 0 0 Z " fill="#EA8917" transform="translate(42,8)"/>
<path d="M0 0 C0.33 1.32 0.66 2.64 1 4 C-1.89647022 5.44823511 -4.31164917 5.00519634 -7.5390625 4.87890625 C-9.49199219 4.80639648 -9.49199219 4.80639648 -11.484375 4.73242188 C-12.86458804 4.67589606 -14.24479632 4.61925392 -15.625 4.5625 C-17.01300219 4.50927707 -18.40102297 4.45653668 -19.7890625 4.40429688 C-23.19292141 4.27428837 -26.59651117 4.13931117 -30 4 C-30 3.34 -30 2.68 -30 2 C-20.1 2 -10.2 2 0 2 C0 1.34 0 0.68 0 0 Z " fill="#E97D01" transform="translate(49,45)"/>
<path d="M0 0 C-0.61488281 0.25394531 -1.22976563 0.50789062 -1.86328125 0.76953125 C-2.67152344 1.11371094 -3.47976563 1.45789063 -4.3125 1.8125 C-5.11300781 2.14894531 -5.91351563 2.48539063 -6.73828125 2.83203125 C-9.7565721 4.39069958 -11.60144817 5.80434451 -12.6875 9.0625 C-13.1463603 13.3757868 -13.07572345 17.66693563 -13 22 C-12.34 22.33 -11.68 22.66 -11 23 C-11.33 23.66 -11.66 24.32 -12 25 C-15 23 -15 23 -15.66796875 21.1484375 C-16.5004644 15.76170095 -16.76762746 11.50783966 -14.25 6.5625 C-12.19316666 4.21999536 -10.89738492 3.03478033 -8 2 C-8 1.34 -8 0.68 -8 0 C-4.71303767 -0.79953138 -3.28976808 -1.09658936 0 0 Z " fill="#D1BFAB" transform="translate(16,11)"/>
<path d="M0 0 C2.31 0.66 4.62 1.32 7 2 C7 9.59 7 17.18 7 25 C6.34 24.67 5.68 24.34 5 24 C4.9906543 23.41508789 4.98130859 22.83017578 4.97167969 22.22753906 C4.91786721 19.5675142 4.83424551 16.90922778 4.75 14.25 C4.73582031 13.32960938 4.72164062 12.40921875 4.70703125 11.4609375 C4.58295132 6.00181875 4.58295132 6.00181875 1.953125 1.359375 C1.30859375 0.91078125 0.6640625 0.4621875 0 0 Z " fill="#C6AA8B" transform="translate(5,36)"/>
<path d="M0 0 C0.99 0 1.98 0 3 0 C2.67 4.29 2.34 8.58 2 13 C1.01 13.33 0.02 13.66 -1 14 C-1.02685938 11.85423363 -1.04633088 9.70837355 -1.0625 7.5625 C-1.07410156 6.36753906 -1.08570313 5.17257813 -1.09765625 3.94140625 C-1 1 -1 1 0 0 Z " fill="#F88D07" transform="translate(4,17)"/>
<path d="M0 0 C3 1.5 3 1.5 5 3 C2 3 2 3 -0.015625 2.5703125 C-4.7233979 1.59002441 -4.7233979 1.59002441 -9.0390625 3.3046875 C-10.88410076 4.96353821 -10.88410076 4.96353821 -12.4921875 6.75 C-12.98976563 7.1625 -13.48734375 7.575 -14 8 C-14.99 7.67 -15.98 7.34 -17 7 C-15.71034824 5.62437146 -14.37310707 4.29233607 -13 3 C-12.34 3 -11.68 3 -11 3 C-11 2.34 -11 1.68 -11 1 C-7.29661796 -0.23446068 -3.85339582 -0.44981274 0 0 Z " fill="#EEDFCF" transform="translate(36,8)"/>
<path d="M0 0 C0.99 0 1.98 0 3 0 C3.62134891 9.0440786 3.62134891 9.0440786 1.375 12.5 C-1.33408798 14.21100294 -3.91531973 15.15872356 -7 16 C-6.67 15.01 -6.34 14.02 -6 13 C-3.5 11.875 -3.5 11.875 -1 11 C0.25949049 9.96593327 0.25949049 9.96593327 0.09765625 7.71484375 C0.08605469 6.79832031 0.07445312 5.88179687 0.0625 4.9375 C0.04896484 3.55884766 0.04896484 3.55884766 0.03515625 2.15234375 C0.02355469 1.44207031 0.01195312 0.73179688 0 0 Z " fill="#D5B897" transform="translate(55,20)"/>
<path d="M0 0 C0.72380859 -0.00257812 1.44761719 -0.00515625 2.19335938 -0.0078125 C4.29296875 0.03125 4.29296875 0.03125 7.8125 0.5 C8.4725 1.49 9.1325 2.48 9.8125 3.5 C8.8225 3.17 7.8325 2.84 6.8125 2.5 C4.75356379 2.27674186 2.69016347 2.09294241 0.625 1.9375 C-0.46167969 1.85371094 -1.54835938 1.76992188 -2.66796875 1.68359375 C-3.49941406 1.62300781 -4.33085937 1.56242188 -5.1875 1.5 C-5.1875 2.16 -5.1875 2.82 -5.1875 3.5 C-7.8275 4.16 -10.4675 4.82 -13.1875 5.5 C-9.21244958 0.56437748 -6.10116022 -0.24294213 0 0 Z " fill="#D6AE82" transform="translate(32.1875,1.5)"/>
<path d="M0 0 C3.16492205 3.75471067 3.28301994 6.09432112 3 11 C2.34 11 1.68 11 1 11 C0.87625 11.639375 0.7525 12.27875 0.625 12.9375 C0.41875 13.618125 0.2125 14.29875 0 15 C-0.99 15.495 -0.99 15.495 -2 16 C-1.67 15.01 -1.34 14.02 -1 13 C-0.77548542 10.77425665 -0.59217122 8.54418481 -0.4375 6.3125 C-0.35371094 5.13300781 -0.26992188 3.95351563 -0.18359375 2.73828125 C-0.12300781 1.83464844 -0.06242187 0.93101563 0 0 Z " fill="#C6AA8B" transform="translate(61,19)"/>
<path d="M0 0 C0.33 0.66 0.66 1.32 1 2 C0.67 2.66 0.34 3.32 0 4 C0.99 4.33 1.98 4.66 3 5 C2.01 5.99 1.02 6.98 0 8 C-0.66 7.67 -1.32 7.34 -2 7 C-2 6.34 -2 5.68 -2 5 C-4.16874252 5.50603992 -5.99967627 5.99983813 -8 7 C-7.3125 5.125 -7.3125 5.125 -6 3 C-3.4375 1.8125 -3.4375 1.8125 -1 1 C-0.67 0.67 -0.34 0.34 0 0 Z " fill="#DB9B51" transform="translate(56,31)"/>
<path d="M0 0 C0.99 0.33 1.98 0.66 3 1 C3.33 2.32 3.66 3.64 4 5 C0.04 4.67 -3.92 4.34 -8 4 C-8 3.67 -8 3.34 -8 3 C-6.865625 2.87625 -5.73125 2.7525 -4.5625 2.625 C-3.386875 2.41875 -2.21125 2.2125 -1 2 C-0.67 1.34 -0.34 0.68 0 0 Z " fill="#D78424" transform="translate(37,3)"/>
<path d="M0 0 C0.33 0 0.66 0 1 0 C1.33 4.62 1.66 9.24 2 14 C-0.475 13.01 -0.475 13.01 -3 12 C-2.34 11.34 -1.68 10.68 -1 10 C-0.53837573 7.56747339 -0.53837573 7.56747339 -0.375 4.875 C-0.30023438 3.96492188 -0.22546875 3.05484375 -0.1484375 2.1171875 C-0.09945313 1.41851563 -0.05046875 0.71984375 0 0 Z " fill="#DA892D" transform="translate(6,20)"/>
<path d="M0 0 C0.33 0.66 0.66 1.32 1 2 C0.34 2 -0.32 2 -1 2 C-0.690625 2.8971875 -0.690625 2.8971875 -0.375 3.8125 C0 6 0 6 -2 9 C-2 7.68 -2 6.36 -2 5 C-3.32 5.33 -4.64 5.66 -6 6 C-2.25 1.125 -2.25 1.125 0 0 Z " fill="#E28A25" transform="translate(21,6)"/>
<path d="M0 0 C0.99 0.495 0.99 0.495 2 1 C2.28926947 3.02488628 2.57272154 5.05244016 2.75390625 7.08984375 C2.90406878 9.08252033 2.90406878 9.08252033 4 11 C3.01 11.33 2.02 11.66 1 12 C0.03929566 9.11788698 -0.10581883 7.30149956 -0.0625 4.3125 C-0.05347656 3.50425781 -0.04445313 2.69601563 -0.03515625 1.86328125 C-0.02355469 1.24839844 -0.01195312 0.63351563 0 0 Z " fill="#DA8726" transform="translate(14,36)"/>
</svg>
